<?xml version="1.0" encoding="iso-8859-1"?>
<!-- Generator: Adobe Illustrator 18.1.1, SVG Export Plug-In . SVG Version: 6.00 Build 0)  -->
<svg version="1.1" xmlns="http://www.w3.org/2000/svg" xmlns:xlink="http://www.w3.org/1999/xlink" x="0px" y="0px"
	 viewBox="0 0 231 231" style="enable-background:new 0 0 231 231;" xml:space="preserve">
<g id="facebook">
	<path d="M115.5,231C51.813,231,0,179.187,0,115.5C0,51.813,51.813,0,115.5,0C179.187,0,231,51.813,231,115.5
		C231,179.187,179.187,231,115.5,231z M115.5,9C56.776,9,9,56.776,9,115.5C9,174.225,56.776,222,115.5,222
		c58.725,0,106.5-47.775,106.5-106.5C222,56.776,174.225,9,115.5,9z"/>
	<path d="M141.299,66.535v15.766h-9.376c-3.425,0-5.734,0.716-6.929,2.148c-1.195,1.432-1.793,3.581-1.793,6.448v11.287h17.497
		l-2.328,17.677h-15.17v45.326h-18.273v-45.326H89.701v-17.677h15.227V89.166c0-7.405,2.07-13.148,6.211-17.23
		c4.141-4.082,9.655-6.123,16.542-6.123c5.853,0,10.392,0.238,13.618,0.715V66.535z"/>
</g>
</svg>
