<?xml version="1.0" encoding="iso-8859-1"?>
<!-- Generator: Adobe Illustrator 18.1.1, SVG Export Plug-In . SVG Version: 6.00 Build 0)  -->
<svg version="1.1" xmlns="http://www.w3.org/2000/svg" xmlns:xlink="http://www.w3.org/1999/xlink" x="0px" y="0px"
	 viewBox="0 0 231 231" style="enable-background:new 0 0 231 231;" xml:space="preserve">
<g id="listen">
	<path d="M115.5,231C51.813,231,0,179.187,0,115.5C0,51.813,51.813,0,115.5,0C179.187,0,231,51.813,231,115.5
		C231,179.187,179.187,231,115.5,231z M115.5,9C56.776,9,9,56.776,9,115.5C9,174.225,56.776,222,115.5,222
		c58.725,0,106.5-47.775,106.5-106.5C222,56.776,174.225,9,115.5,9z"/>
	<path d="M153.34,163.921v-8.903h-0.111c0.04-0.739,0.111-1.474,0.111-2.226v-48.969c0-20.896-16.943-37.84-37.84-37.84
		s-37.84,16.943-37.84,37.84v48.969c0,0.752,0.071,1.487,0.111,2.226H77.66v8.903c0,0-22.259-0.374-22.259-24.485
		c0-13.676,7.154-19.708,13.355-22.37v-13.244c0-25.816,20.928-46.743,46.743-46.743s46.743,20.928,46.743,46.743v13.244
		c6.201,2.667,13.355,8.694,13.355,22.37C175.598,163.547,153.34,163.921,153.34,163.921z M86.564,163.921h-4.452v-48.969h4.452
		V163.921z M148.888,163.921h-4.452v-48.969h4.452V163.921z"/>
</g>
</svg>
