<?xml version="1.0" encoding="iso-8859-1"?>
<!-- Generator: Adobe Illustrator 18.1.1, SVG Export Plug-In . SVG Version: 6.00 Build 0)  -->
<svg version="1.1" xmlns="http://www.w3.org/2000/svg" xmlns:xlink="http://www.w3.org/1999/xlink" x="0px" y="0px"
	 viewBox="0 0 231 231" style="enable-background:new 0 0 231 231;" xml:space="preserve">
<g id="play">
	<path d="M115.5,231C51.813,231,0,179.187,0,115.5C0,51.813,51.813,0,115.5,0C179.187,0,231,51.813,231,115.5
		C231,179.187,179.187,231,115.5,231z M115.5,9C56.776,9,9,56.776,9,115.5C9,174.225,56.776,222,115.5,222
		c58.725,0,106.5-47.775,106.5-106.5C222,56.776,174.225,9,115.5,9z"/>
	<path d="M178.118,117.85L77.387,173.827c-1.162,0.657-2.16,0.733-2.995,0.228c-0.835-0.505-1.252-1.414-1.252-2.728V59.673
		c0-1.314,0.417-2.223,1.252-2.728c0.835-0.505,1.833-0.429,2.995,0.228l100.731,55.977c1.162,0.657,1.743,1.44,1.743,2.35
		S179.28,117.193,178.118,117.85z"/>
</g>
</svg>
