<?xml version="1.0" encoding="utf-8"?>
<!-- Generator: Adobe Illustrator 18.1.1, SVG Export Plug-In . SVG Version: 6.00 Build 0)  -->
<svg version="1.1" id="Layer_1" xmlns="http://www.w3.org/2000/svg" xmlns:xlink="http://www.w3.org/1999/xlink" x="0px" y="0px"
	 viewBox="4 -19.4 512 434.4" enable-background="new 4 -19.4 512 434.4" xml:space="preserve">
<g>
	<path d="M113.2,55.2c2.1-1.2,4.4-2.2,6.1-3.8c20.1-17.4,42.3-31.6,67.8-39.2c13.2-4,27.3-4.9,41.1-6.5c2.5-0.3,6.7,2.3,7.8,4.6
		c1.1,2.4,0.5,7.1-1.3,9c-3.2,3.4-7.5,6.5-11.9,8c-16.9,5.7-34.2,10.3-51.1,16.1c-4,1.4-6.9,5.8-10.5,8.6
		c-8.2,6.6-16.5,13.1-24.8,19.6c-1.3,1-2.5,2.2-3.8,3.3c0.2,0.5,0.5,0.9,0.8,1.4c4.2-1.8,8.4-3.8,12.7-5.3
		c13.5-4.6,26.9-10.8,40.8-12.9c12-1.8,24.8,1,37.2,2.3c2.9,0.3,5.8,2.6,8.2,4.6c9.1,7.1,17.9,14.5,26.9,21.8
		c3.1,2.5,3.1,4.9,0.8,8.2c-5.5,7.7-12.5,10.1-20.7,5.4c-6.5-3.8-12.3-8.7-18.2-13.4c-3.1-2.5-5.9-3.4-10.3-2.7
		c-8.2,1.3-16.6,1-24.9,1.8c-3.1,0.3-6.5,1-8.9,2.7c-11.5,8.2-22.9,16.6-34,25.3c-2.1,1.6-3,4.8-3.5,8.2c1.1-0.5,2.3-0.9,3.3-1.5
		c9.1-6.2,19.7-7.1,30.1-8.4c3.3-0.4,6.7-0.4,10-1c13.5-2.3,23.8,4.2,33.8,11.9c8.2,6.3,16.5,12.5,24.6,18.9c4.8,3.8,7.2,8.7,7.2,15
		c-0.1,10.5,0.6,21.1-3.3,31.2c-0.5,1.2-0.7,3.4-0.1,3.9c6.4,4.9,2.2,10.3,0.5,15.2c-3.6,10.3-7.8,20.4-11.9,30.6
		c-3.9,9.7-9.7,16.2-20.7,19.3c-24.3,6.9-48.1,15.4-72.1,23.4c-9.8,3.3-19.4,4.6-29.8,2c-19.7-4.7-39.2-2.7-57.8,5.6
		c-8.7,3.8-17.1,8.2-25.9,12.5c-10.1-14.5-16.1-30.4-19.8-47.3c-4.4-19.8-4.6-39.8-2.2-59.9c0.2-1.7,1.8-4.2,3.3-4.8
		c19.7-8,28.8-24.5,35.3-43.3c7.8-22.3,11.4-46.6,25.1-66.2c15.2-21.8,26.9-46,46.7-64.6c9.8-9.2,17.7-20.3,26.4-30.6
		c4.1-4.8,5.9-4.7,9.4,0.6c4,6,3,12.5-1.9,18.7c-11.9,15-23.5,30.1-35.1,45.3c-1.2,1.6-1.9,3.6-2.8,5.5
		C112.5,54.4,112.8,54.8,113.2,55.2z M198.7,223.6c4.8,0,9.2,1.3,11.6-3.8c4.7-10.1,11.9-18.3,20.5-25.2c2.6-2.1,2.3-3.8,0.9-6.6
		c-4.2-8-7.8-16.4-11.9-24.4c-1.2-2.2-3-4.4-5.1-5.8c-7.3-4.7-14.8-9.2-22.4-13.3c-2-1.1-5.2-1.5-7.3-0.7c-5.8,2-11.3,5-17,7.3
		c-5.1,2.1-10.5,3.6-15.6,5.7c-12.2,5-15.2,16.3-18.8,27.4c-2.4,7.4-0.8,12.8,4.5,18.3c7,7.3,13.5,15.1,19.7,23c2.2,2.8,4.3,3,7.2,2
		C176.2,223.6,187.6,221.4,198.7,223.6z"/>
	<path d="M405.8,340.5c-3.9,2.9-8,5.6-11.7,8.8c-18,15.8-38.6,27-61.1,34.2c-13,4.2-27.2,5.4-41,6.8c-7.8,0.8-12-7.3-7.1-13.6
		c3-3.9,8-7,12.8-8.7c14.5-4.9,29.3-8.6,43.8-13.5c5.2-1.8,10.1-5.3,14.6-8.7c9.4-7.1,18.4-14.6,27.5-22c1.3-1.1,2.6-2.3,3.1-4.7
		c-5,2.1-9.8,4.6-14.9,6.3c-12.6,4.3-25,10.2-38,11.9c-12.3,1.6-25.3-1-37.9-2.3c-2.8-0.3-5.6-2.7-8.1-4.6
		c-7.9-6-15.7-12.2-23.4-18.4c-8-6.4-6.8-14.6,3.2-17.8c3.9-1.2,9.4-0.8,13,1.1c7.1,3.9,13.2,9.5,19.9,14c1.9,1.3,4.6,2.1,6.9,2
		c8.7-0.4,17.5-0.9,26.1-2c4-0.5,8.3-1.7,11.5-3.9c10.9-7.6,21.6-15.7,32-24c2.2-1.7,3.2-5,4.1-8.2c-14.1,9.3-29.9,9.3-45.5,10.6
		c-10.2,0.8-19.1-1.6-27.2-8.2c-10.5-8.6-21.5-16.4-31.9-25c-2.5-2.1-4.7-6.1-4.6-9.2c0.2-10.5,1.3-20.9,2.4-31.3
		c0.3-3.5,2.2-6.8-1.5-9.9c-1-0.9-1.1-3.8-0.6-5.5c1.2-4.2,3.1-8.2,4.6-12.3c2.9-7.8,5.8-15.6,8.6-23.5
		c3.9-10.7,10.3-17.8,22.1-21.1c24.1-6.9,47.8-15.2,71.6-23.1c10-3.3,19.6-4.7,30.3-1.9c20.8,5.5,41,1.6,60.3-7.1
		c7.4-3.4,14.5-7.3,22.2-11.2c8.8,10.7,13.3,23.3,17.4,36.2c7.3,23.2,7.6,46.9,5.4,70.9c-0.5,5.3-4.9,6.1-8.2,7.5
		c-11.8,5-19.2,14.4-24.2,25.4c-5.4,11.9-9.6,24.5-13.5,37c-5.5,17.5-11.3,34.8-21.6,50.2c-7.8,11.7-14.9,24-23.3,35.3
		c-6.8,9.3-15,17.5-22.5,26.2c-8,9.3-16,18.7-24,28c-4.3,4.9-6.3,4.8-9.8-0.9c-3.8-6.1-2.7-12.1,2.5-18.6
		c11.8-14.8,23.3-29.7,34.8-44.7c1.2-1.5,1.6-3.7,2.4-5.5C407,341.4,406.4,340.9,405.8,340.5z M288.4,204.4
		c3.8,9.1,7.6,18.8,11.9,28.2c0.9,2.1,3,3.9,5.1,5.2c7.4,4.6,15.1,8.7,22.3,13.5c2.6,1.7,4.4,2.1,7.4,0.8c8.9-3.9,18-7.3,27-10.8
		c8.8-3.3,16.7-7.8,20.1-17.2c1.8-4.8,3.4-9.8,4.7-14.8c1.4-5.4,0.6-10.2-3.7-14.8c-7.6-8-14.5-16.8-21.8-25.1
		c-0.9-1.1-3.4-1.8-4.8-1.3c-12.7,4-25.4,5.9-38.8,3.8c-2.4-0.4-6.2,1.5-7.9,3.6C302.4,185.2,295.3,195.1,288.4,204.4z"/>
</g>
</svg>
