<?xml version="1.0" encoding="iso-8859-1"?>
<!-- Generator: Adobe Illustrator 18.1.1, SVG Export Plug-In . SVG Version: 6.00 Build 0)  -->
<svg version="1.1" id="Layer_1" xmlns="http://www.w3.org/2000/svg" xmlns:xlink="http://www.w3.org/1999/xlink" x="0px" y="0px"
	 viewBox="0 0 286.148 286.044" style="enable-background:new 0 0 286.148 286.044;" xml:space="preserve">
<g>
	<path style="fill-rule:evenodd;clip-rule:evenodd;" d="M185.651,196.238c3.545-0.938,7.569-3.161,9.447-5.877
		c5.025-7.242,6.809-26.607,3.305-37.711c-2.852-9.046-7.795-13.46-19.841-13.226c-2.058,0.291-2.865,0.581-4.252,1.472
		c-4.783,2.956-8.194,9.606-9.926,15.677C159.655,173.168,167.463,201.026,185.651,196.238z"/>
	<path style="fill-rule:evenodd;clip-rule:evenodd;" d="M214.287,31.231c3.226-5.567,11.406-19.668,15.337-26.429
		c-11.365-2.88-23.198-4.543-35.384-4.772c-86.481-1.67-158.27,67.63-163.27,156.059c-6.622-0.124-23.981-0.448-30.97-0.579
		c3.27,11.651,7.821,23.113,13.724,34.169c41.854,78.486,135.65,108.264,212.029,68.549c3.166,5.911,11.38,21.298,14.865,27.816
		c8.38-8.972,15.935-19.061,22.414-30.219C307.668,179.017,285.657,79.944,214.287,31.231z M257.939,176.158
		c-9.261,32.161-21.226,48.996-45.357,65.628c-7.595,5.225-12.74,7.573-22.026,11.482c-3.551,1.499-9.035,3.468-11.993,3.688
		c-2.433,0.414-1.486-12.871-1.413-19.092c0.441-1.486,0.334-1.313,1.201-2.009c5.502-2.62,10.033-4.085,17.222-8.276
		c15.19-9.6,28.427-22.588,34.493-41.635c2.012-6.325,3.342-12.864,4.25-19.577c1.719-12.7,0.811-26.691-1.892-35.758
		c-7.742-25.988-21.135-43.148-43.934-53.37c-6.481-2.906-19.6-9.37-37.27-7.664c-9.024,0.877-14.83,2.534-22.265,5.696
		c-21.477,9.158-36.556,25.669-45.359,47.996c-2.341,5.96-3.287,11.416-4.25,19.592c-1.003,8.509,0.703,21.753,2.364,27.417
		c6.443,22.014,15.661,36.139,32.124,47.504c5.434,3.757,10.839,6.315,17.478,9.31c1.47,0.655,5.676,2.554,6.619,1.961
		c1.194-1.055,0.474-19.172,0.474-23.998v-63.044c-1.076-0.158-6.736-0.172-9.925-0.131v76.89
		c-6.408-0.845-23.088-11.637-25.041-16.659v-59.742c-0.657-0.166-12.857-0.531-18.424-0.49c-0.126-4.109,0.299-10.677,3.307-17.147
		h15.117c-0.193-37.533,22.852-48.667,58.587-48.481v21.064c-22.383-0.408-33.929,3.922-33.547,27.417h34.493
		c0.02,1.05-0.033,10.399,0.08,11.29c6.368-11.913,22.492-17.741,36.776-11.782c13.785,5.767,20.335,15.939,24.56,31.843
		c1.071,4.026,1.463,10.684,0.638,18.171c-1.526,14.037-6.503,27.305-18.109,34.715c-15.111,9.627-36.91,3.092-42.999-10.282h-0.474
		v45.055c0,0-0.046,11.22,0.013,14.99c-51.61,0.683-85.295-26.82-100.649-63.471c-10.688-25.518-13.146-58.113-1.892-85.702
		c11.659-28.59,32.985-48.452,60.947-60.24c6.616-2.791,13.275-4.55,20.791-5.627c26.281-3.764,51.672,5.021,63.371,12.085
		c5.076,3.073,7.115,3.881,11.752,7.257c18.616,13.564,32.027,33.838,39.689,58.763c1.752,5.717,2.491,11.449,3.305,18.128
		C262.183,151.449,260.164,168.423,257.939,176.158z"/>
</g>
<g>
</g>
<g>
</g>
<g>
</g>
<g>
</g>
<g>
</g>
<g>
</g>
</svg>
