<?xml version="1.0" encoding="utf-8"?>
<!DOCTYPE svg PUBLIC "-//W3C//DTD SVG 1.1//EN" "http://www.w3.org/Graphics/SVG/1.1/DTD/svg11.dtd">
<svg version="1.1" id="Layer_1" xmlns="http://www.w3.org/2000/svg" xmlns:xlink="http://www.w3.org/1999/xlink" x="0px" y="0px" width="214.627px" height="44.784px" viewBox="0 0 214.627 44.784" style="enable-background:new 0 0 214.627 44.784;" xml:space="preserve">
<style type="text/css">
<![CDATA[
    #logo{fill:#ffffff;}
	.st1{fill-rule:evenodd;clip-rule:evenodd;}
]]>
</style>
<g id="logo">
<path class="st1" d="M44.542,20.142c-0.177-1.384-0.334-2.572-0.712-3.758c-1.646-5.169-4.53-9.375-8.531-12.186
	c-0.994-0.7-1.435-0.867-2.526-1.503c-2.515-1.466-7.973-3.288-13.621-2.507c-1.615,0.222-3.045,0.588-4.468,1.167
	C8.671,3.799,4.088,7.917,1.583,13.846c-2.419,5.722-1.891,12.482,0.406,17.772c3.3,7.601,10.539,13.306,21.634,13.163
	C23.611,44,23.62,41.672,23.62,41.672v-9.344h0.102c1.31,2.775,5.994,4.131,9.241,2.134c2.496-1.536,3.568-4.289,3.896-7.2
	c0.175-1.551,0.094-2.934-0.139-3.769c-0.908-3.296-2.316-5.407-5.28-6.601c-3.07-1.237-6.534-0.028-7.904,2.443
	c-0.023-0.186-0.012-2.125-0.017-2.341h-7.415c-0.082-4.874,2.4-5.769,7.212-5.687V6.94c-7.682-0.039-12.637,2.268-12.594,10.054
	h-3.25c-0.647,1.34-0.738,2.702-0.71,3.554c1.197-0.007,3.818,0.068,3.96,0.103v12.389c0.421,1.043,4.007,3.279,5.382,3.453V20.547
	c0.686-0.007,1.902-0.004,2.133,0.029v13.072c0,1.003,0.157,4.759-0.1,4.977c-0.203,0.124-1.108-0.27-1.423-0.406
	c-1.429-0.62-2.59-1.151-3.759-1.929c-3.539-2.358-5.52-5.287-6.903-9.852c-0.356-1.176-0.725-3.922-0.509-5.688
	c0.206-1.695,0.41-2.828,0.912-4.061c1.894-4.63,5.135-8.056,9.751-9.953c1.599-0.659,2.847-1.002,4.784-1.183
	c3.801-0.354,6.621,0.987,8.012,1.589c4.902,2.121,7.781,5.679,9.445,11.069c0.58,1.879,0.775,4.781,0.405,7.414
	c-0.194,1.393-0.479,2.749-0.914,4.062c-1.302,3.947-4.149,6.643-7.413,8.633c-1.546,0.871-2.52,1.174-3.703,1.715
	c-0.185,0.146-0.161,0.108-0.257,0.418c-0.015,1.291-0.22,4.047,0.305,3.961c0.636-0.046,1.813-0.455,2.576-0.765
	c1.997-0.812,3.102-1.299,4.735-2.384c5.187-3.448,7.759-6.938,9.75-13.609C44.409,26.054,44.844,22.532,44.542,20.142
	 M23.823,23.596c0.372-1.259,1.104-2.636,2.134-3.251c0.296-0.184,0.47-0.245,0.914-0.304c2.587-0.05,3.651,0.866,4.264,2.743
	c0.754,2.302,0.37,6.316-0.709,7.818c-0.406,0.564-1.271,1.025-2.032,1.219C24.484,32.815,22.804,27.036,23.823,23.596"/>
<path d="M54.25,38.699V17.476h-3.367l0.964-2.402h2.403v-0.825c0-2.438,0.573-4.662,2.046-6.061
	c1.183-1.147,2.759-1.613,4.194-1.613c1.146,0,3.044-0.231,3.652,0.019l0.089,2.439c-0.502-0.215-2.56,0.087-3.491,0.087
	c-2.654,0-3.37,2.367-3.37,5.021v0.932h4.197v2.402h-4.162v23.153L54.25,38.699z"/>
<path d="M74.028,28.27c0,1.507,0.073,2.977,0.251,4.16h-2.831l-0.288-2.188h-0.107
	c-0.933,1.362-2.833,2.582-5.309,2.582c-3.513,0-5.308-2.475-5.308-4.984c0-4.196,3.73-6.49,10.438-6.455v-0.359
	c0-1.434-0.151-3.753-3.703-3.717c-1.648,0-3.65,0-4.156,0.083l-0.041-2.352c0.756-0.125,2.478-0.063,4.665-0.063
	c5.343,0,6.389,3.323,6.389,6.802V28.27z M70.944,23.573c-3.44-0.072-7.349,0.536-7.349,3.907c0,2.08,1.361,3.012,2.938,3.012
	c2.295,0,3.766-1.434,4.267-2.903c0.11-0.321,0.144-0.682,0.144-1.004V23.573z"/>
<path d="M77.005,11.883c-1.184,0-1.973-0.933-1.973-2.045c0-1.111,0.824-2.007,2.043-2.007
	c1.221,0,2.009,0.896,2.009,2.007c0,1.112-0.788,2.045-2.042,2.045H77.005z M75.499,15.074h3.156V32.43h-3.156V15.074z"/>
<path d="M86.254,10.914v4.16h4.52v2.402h-4.52v9.359c0,2.151,0.61,3.372,2.368,3.372c0.86,0,1.364-0.072,1.828-0.216
	l0.145,2.403c-0.608,0.214-1.579,0.43-2.798,0.43c-1.469,0-2.653-0.502-3.406-1.327c-0.859-0.969-1.219-2.511-1.219-4.554v-9.467
	h-2.689v-2.402h2.689v-3.191L86.254,10.914z"/>
<path d="M92.173,6.97h3.155v10.829H95.4c0.502-0.896,1.29-1.722,2.261-2.224c0.931-0.574,2.043-0.897,3.227-0.897
	c2.329,0,6.06,1.436,6.06,7.424V32.43h-3.156v-9.969c0-2.832-1.038-5.164-4.016-5.164c-2.043,0-3.622,1.434-4.232,3.155
	c-0.179,0.43-0.214,0.897-0.214,1.506V32.43h-3.155V6.97z"/>
<path d="M113.22,20.74c0-2.223-0.034-4.017-0.143-5.666h2.833l0.181,2.977h0.071c1.254-2.152,3.335-3.372,6.132-3.372
	c4.23,0,7.387,3.551,7.387,8.821c0,6.24-3.838,9.324-7.889,9.324c-2.331,0-4.304-1.004-5.342-2.726h-0.073v12.325l-3.157-1.93V20.74
	z M116.377,25.365c0,0.431,0.035,0.896,0.144,1.291c0.538,2.188,2.475,3.693,4.698,3.693c3.334,0,5.27-2.725,5.27-6.706
	c0-3.478-1.791-6.454-5.128-6.454c-2.151,0-4.194,1.506-4.803,3.873c-0.073,0.431-0.181,0.896-0.181,1.291V25.365z"/>
<path d="M130.792,20.488c0-2.044-0.035-3.8-0.142-5.415h2.76l0.143,3.407h0.11c0.788-2.331,2.722-3.803,4.839-3.803
	c0.323,0,0.574,0.037,0.862,0.108v2.941c-0.359-0.037-0.682-0.072-1.113-0.072c-2.223,0-3.8,1.685-4.231,4.016
	c-0.072,0.466-0.106,0.968-0.106,1.506v9.252h-3.156L130.792,20.488z"/>
<path d="M146.677,32.824c-4.662,0-8.319-3.443-8.319-8.93c0-5.809,3.84-9.216,8.606-9.216
	c4.985,0,8.356,3.623,8.356,8.896c0,6.452-4.483,9.25-8.607,9.25H146.677z M146.787,30.457c3.011,0,5.271-2.832,5.271-6.777
	c0-2.94-1.471-6.634-5.199-6.634c-3.695,0-5.31,3.442-5.31,6.743c0,3.801,2.154,6.669,5.201,6.669H146.787z"/>
<path d="M156.431,19.771c0-1.829-0.071-3.263-0.142-4.697h2.76l0.142,2.797h0.11c0.968-1.65,2.581-3.192,5.485-3.192
	c2.332,0,4.124,1.436,4.877,3.479h0.072c0.537-1.003,1.254-1.721,1.973-2.259c1.041-0.789,2.15-1.22,3.799-1.22
	c2.332,0,5.739,1.507,5.739,7.531v10.22h-3.084v-9.826c0-3.371-1.255-5.342-3.764-5.342c-1.829,0-3.193,1.326-3.767,2.833
	c-0.145,0.465-0.252,1.04-0.252,1.578V32.43h-3.083V22.03c0-2.797-1.221-4.769-3.623-4.769c-1.938,0-3.405,1.578-3.908,3.154
	c-0.179,0.467-0.25,1.006-0.25,1.543V32.43h-3.085V19.771z"/>
<path d="M184.743,11.883c-1.185,0-1.976-0.933-1.976-2.045c0-1.111,0.827-2.007,2.046-2.007s2.007,0.896,2.007,2.007
	c0,1.112-0.788,2.045-2.044,2.045H184.743z M183.236,15.074h3.154V32.43h-3.154V15.074z"/>
<path d="M188.092,29.239c0.967,0.573,2.617,1.218,4.195,1.218c2.258,0,3.334-1.111,3.334-2.582
	c0-1.506-0.896-2.33-3.19-3.191c-3.155-1.146-4.626-2.832-4.626-4.913c0-2.796,2.294-5.092,5.988-5.092
	c1.759,0,3.299,0.466,4.231,1.077l-0.753,2.26c-0.682-0.396-1.936-1.006-3.55-1.006c-1.866,0-2.868,1.077-2.868,2.367
	c0,1.471,1.002,2.117,3.263,2.977c2.976,1.112,4.553,2.618,4.553,5.235c0,3.085-2.399,5.236-6.454,5.236
	c-1.901,0-3.658-0.502-4.878-1.22L188.092,29.239z"/>
<path d="M202.364,24.29c0.071,4.267,2.762,6.022,5.915,6.022c2.261,0,3.66-0.393,4.809-0.859l0.572,2.224
	c-1.112,0.502-3.048,1.112-5.811,1.112c-5.306,0-8.532-3.55-8.532-8.75c0-5.271,3.118-9.395,8.175-9.395
	c5.664,0,7.136,4.985,7.136,8.175c0,0.646-0.034,1.147-0.107,1.506L202.364,24.29z M211.579,22.031
	c0.037-1.973-0.825-5.128-4.339-5.128c-3.225,0-4.59,2.94-4.841,5.128H211.579z"/>
<path d="M135.286,41.938c-0.295,0.133-0.944,0.274-1.769,0.274c-2.174,0-3.495-1.19-3.495-2.994
	c0-1.956,1.565-3.135,3.656-3.135c0.823,0,1.411,0.149,1.666,0.265l-0.271,0.862c-0.327-0.124-0.773-0.229-1.344-0.229
	c-1.39,0-2.396,0.758-2.396,2.184c0,1.303,0.883,2.141,2.386,2.141c0.509,0,1.037-0.088,1.361-0.221L135.286,41.938z"/>
<polygon points="145.724,36.18 145.724,38.557 148.62,38.557 148.62,36.18 149.868,36.18 149.868,42.114 148.62,42.114 
	148.62,39.499 145.724,39.499 145.724,42.114 144.474,42.114 144.474,36.18 "/>
<path d="M160.664,36.18v3.461c0,1.162,0.559,1.697,1.4,1.697c0.904,0,1.443-0.535,1.443-1.697V36.18h1.25v3.39
	c0,1.831-1.089,2.642-2.733,2.642c-1.585,0-2.609-0.766-2.609-2.633V36.18H160.664z"/>
<path d="M174.31,36.259c0.47-0.071,1.171-0.123,1.893-0.123c0.983,0,1.652,0.141,2.11,0.476
	c0.375,0.273,0.587,0.687,0.587,1.188c0,0.767-0.598,1.286-1.236,1.488v0.027c0.487,0.158,0.781,0.572,0.953,1.145
	c0.215,0.74,0.396,1.426,0.54,1.655h-1.291c-0.101-0.177-0.263-0.659-0.456-1.399c-0.193-0.775-0.52-1.022-1.23-1.039h-0.629v2.438
	h-1.24V36.259z M175.55,38.883h0.742c0.845,0,1.371-0.387,1.371-0.979c0-0.65-0.526-0.95-1.34-0.95
	c-0.397,0-0.651,0.026-0.773,0.053V38.883z"/>
<path d="M193.12,41.938c-0.296,0.133-0.943,0.274-1.767,0.274c-2.173,0-3.495-1.19-3.495-2.994
	c0-1.956,1.565-3.135,3.656-3.135c0.822,0,1.413,0.149,1.666,0.265l-0.273,0.862c-0.323-0.124-0.772-0.229-1.341-0.229
	c-1.391,0-2.397,0.758-2.397,2.184c0,1.303,0.885,2.141,2.387,2.141c0.508,0,1.036-0.088,1.361-0.221L193.12,41.938z"/>
<polygon points="203.56,36.18 203.56,38.557 206.456,38.557 206.456,36.18 207.705,36.18 207.705,42.114 
	206.456,42.114 206.456,39.499 203.56,39.499 203.56,42.114 202.31,42.114 202.31,36.18 "/>
</g>
</svg>
