<svg xmlns="http://www.w3.org/2000/svg"><symbol viewBox="4 -19.4 512 434.4" id="asl"><title>asl</title> <g> <path d="M113.2,55.2c2.1-1.2,4.4-2.2,6.1-3.8c20.1-17.4,42.3-31.6,67.8-39.2c13.2-4,27.3-4.9,41.1-6.5c2.5-0.3,6.7,2.3,7.8,4.6
		c1.1,2.4,0.5,7.1-1.3,9c-3.2,3.4-7.5,6.5-11.9,8c-16.9,5.7-34.2,10.3-51.1,16.1c-4,1.4-6.9,5.8-10.5,8.6
		c-8.2,6.6-16.5,13.1-24.8,19.6c-1.3,1-2.5,2.2-3.8,3.3c0.2,0.5,0.5,0.9,0.8,1.4c4.2-1.8,8.4-3.8,12.7-5.3
		c13.5-4.6,26.9-10.8,40.8-12.9c12-1.8,24.8,1,37.2,2.3c2.9,0.3,5.8,2.6,8.2,4.6c9.1,7.1,17.9,14.5,26.9,21.8
		c3.1,2.5,3.1,4.9,0.8,8.2c-5.5,7.7-12.5,10.1-20.7,5.4c-6.5-3.8-12.3-8.7-18.2-13.4c-3.1-2.5-5.9-3.4-10.3-2.7
		c-8.2,1.3-16.6,1-24.9,1.8c-3.1,0.3-6.5,1-8.9,2.7c-11.5,8.2-22.9,16.6-34,25.3c-2.1,1.6-3,4.8-3.5,8.2c1.1-0.5,2.3-0.9,3.3-1.5
		c9.1-6.2,19.7-7.1,30.1-8.4c3.3-0.4,6.7-0.4,10-1c13.5-2.3,23.8,4.2,33.8,11.9c8.2,6.3,16.5,12.5,24.6,18.9c4.8,3.8,7.2,8.7,7.2,15
		c-0.1,10.5,0.6,21.1-3.3,31.2c-0.5,1.2-0.7,3.4-0.1,3.9c6.4,4.9,2.2,10.3,0.5,15.2c-3.6,10.3-7.8,20.4-11.9,30.6
		c-3.9,9.7-9.7,16.2-20.7,19.3c-24.3,6.9-48.1,15.4-72.1,23.4c-9.8,3.3-19.4,4.6-29.8,2c-19.7-4.7-39.2-2.7-57.8,5.6
		c-8.7,3.8-17.1,8.2-25.9,12.5c-10.1-14.5-16.1-30.4-19.8-47.3c-4.4-19.8-4.6-39.8-2.2-59.9c0.2-1.7,1.8-4.2,3.3-4.8
		c19.7-8,28.8-24.5,35.3-43.3c7.8-22.3,11.4-46.6,25.1-66.2c15.2-21.8,26.9-46,46.7-64.6c9.8-9.2,17.7-20.3,26.4-30.6
		c4.1-4.8,5.9-4.7,9.4,0.6c4,6,3,12.5-1.9,18.7c-11.9,15-23.5,30.1-35.1,45.3c-1.2,1.6-1.9,3.6-2.8,5.5
		C112.5,54.4,112.8,54.8,113.2,55.2z M198.7,223.6c4.8,0,9.2,1.3,11.6-3.8c4.7-10.1,11.9-18.3,20.5-25.2c2.6-2.1,2.3-3.8,0.9-6.6
		c-4.2-8-7.8-16.4-11.9-24.4c-1.2-2.2-3-4.4-5.1-5.8c-7.3-4.7-14.8-9.2-22.4-13.3c-2-1.1-5.2-1.5-7.3-0.7c-5.8,2-11.3,5-17,7.3
		c-5.1,2.1-10.5,3.6-15.6,5.7c-12.2,5-15.2,16.3-18.8,27.4c-2.4,7.4-0.8,12.8,4.5,18.3c7,7.3,13.5,15.1,19.7,23c2.2,2.8,4.3,3,7.2,2
		C176.2,223.6,187.6,221.4,198.7,223.6z"/> <path d="M405.8,340.5c-3.9,2.9-8,5.6-11.7,8.8c-18,15.8-38.6,27-61.1,34.2c-13,4.2-27.2,5.4-41,6.8c-7.8,0.8-12-7.3-7.1-13.6
		c3-3.9,8-7,12.8-8.7c14.5-4.9,29.3-8.6,43.8-13.5c5.2-1.8,10.1-5.3,14.6-8.7c9.4-7.1,18.4-14.6,27.5-22c1.3-1.1,2.6-2.3,3.1-4.7
		c-5,2.1-9.8,4.6-14.9,6.3c-12.6,4.3-25,10.2-38,11.9c-12.3,1.6-25.3-1-37.9-2.3c-2.8-0.3-5.6-2.7-8.1-4.6
		c-7.9-6-15.7-12.2-23.4-18.4c-8-6.4-6.8-14.6,3.2-17.8c3.9-1.2,9.4-0.8,13,1.1c7.1,3.9,13.2,9.5,19.9,14c1.9,1.3,4.6,2.1,6.9,2
		c8.7-0.4,17.5-0.9,26.1-2c4-0.5,8.3-1.7,11.5-3.9c10.9-7.6,21.6-15.7,32-24c2.2-1.7,3.2-5,4.1-8.2c-14.1,9.3-29.9,9.3-45.5,10.6
		c-10.2,0.8-19.1-1.6-27.2-8.2c-10.5-8.6-21.5-16.4-31.9-25c-2.5-2.1-4.7-6.1-4.6-9.2c0.2-10.5,1.3-20.9,2.4-31.3
		c0.3-3.5,2.2-6.8-1.5-9.9c-1-0.9-1.1-3.8-0.6-5.5c1.2-4.2,3.1-8.2,4.6-12.3c2.9-7.8,5.8-15.6,8.6-23.5
		c3.9-10.7,10.3-17.8,22.1-21.1c24.1-6.9,47.8-15.2,71.6-23.1c10-3.3,19.6-4.7,30.3-1.9c20.8,5.5,41,1.6,60.3-7.1
		c7.4-3.4,14.5-7.3,22.2-11.2c8.8,10.7,13.3,23.3,17.4,36.2c7.3,23.2,7.6,46.9,5.4,70.9c-0.5,5.3-4.9,6.1-8.2,7.5
		c-11.8,5-19.2,14.4-24.2,25.4c-5.4,11.9-9.6,24.5-13.5,37c-5.5,17.5-11.3,34.8-21.6,50.2c-7.8,11.7-14.9,24-23.3,35.3
		c-6.8,9.3-15,17.5-22.5,26.2c-8,9.3-16,18.7-24,28c-4.3,4.9-6.3,4.8-9.8-0.9c-3.8-6.1-2.7-12.1,2.5-18.6
		c11.8-14.8,23.3-29.7,34.8-44.7c1.2-1.5,1.6-3.7,2.4-5.5C407,341.4,406.4,340.9,405.8,340.5z M288.4,204.4
		c3.8,9.1,7.6,18.8,11.9,28.2c0.9,2.1,3,3.9,5.1,5.2c7.4,4.6,15.1,8.7,22.3,13.5c2.6,1.7,4.4,2.1,7.4,0.8c8.9-3.9,18-7.3,27-10.8
		c8.8-3.3,16.7-7.8,20.1-17.2c1.8-4.8,3.4-9.8,4.7-14.8c1.4-5.4,0.6-10.2-3.7-14.8c-7.6-8-14.5-16.8-21.8-25.1
		c-0.9-1.1-3.4-1.8-4.8-1.3c-12.7,4-25.4,5.9-38.8,3.8c-2.4-0.4-6.2,1.5-7.9,3.6C302.4,185.2,295.3,195.1,288.4,204.4z"/> </g> </symbol><symbol viewBox="0 0 214.627 44.784" id="logo-faith-promise"><title>logo-faith-promise</title> <style type="text/css"> <![CDATA[ #logo{fill:#ffffff;} .st1{fill-rule:evenodd;clip-rule:evenodd;} ]]> </style> <g id="logo-faith-promise-logo"> <path class="st1" d="M44.542,20.142c-0.177-1.384-0.334-2.572-0.712-3.758c-1.646-5.169-4.53-9.375-8.531-12.186
	c-0.994-0.7-1.435-0.867-2.526-1.503c-2.515-1.466-7.973-3.288-13.621-2.507c-1.615,0.222-3.045,0.588-4.468,1.167
	C8.671,3.799,4.088,7.917,1.583,13.846c-2.419,5.722-1.891,12.482,0.406,17.772c3.3,7.601,10.539,13.306,21.634,13.163
	C23.611,44,23.62,41.672,23.62,41.672v-9.344h0.102c1.31,2.775,5.994,4.131,9.241,2.134c2.496-1.536,3.568-4.289,3.896-7.2
	c0.175-1.551,0.094-2.934-0.139-3.769c-0.908-3.296-2.316-5.407-5.28-6.601c-3.07-1.237-6.534-0.028-7.904,2.443
	c-0.023-0.186-0.012-2.125-0.017-2.341h-7.415c-0.082-4.874,2.4-5.769,7.212-5.687V6.94c-7.682-0.039-12.637,2.268-12.594,10.054
	h-3.25c-0.647,1.34-0.738,2.702-0.71,3.554c1.197-0.007,3.818,0.068,3.96,0.103v12.389c0.421,1.043,4.007,3.279,5.382,3.453V20.547
	c0.686-0.007,1.902-0.004,2.133,0.029v13.072c0,1.003,0.157,4.759-0.1,4.977c-0.203,0.124-1.108-0.27-1.423-0.406
	c-1.429-0.62-2.59-1.151-3.759-1.929c-3.539-2.358-5.52-5.287-6.903-9.852c-0.356-1.176-0.725-3.922-0.509-5.688
	c0.206-1.695,0.41-2.828,0.912-4.061c1.894-4.63,5.135-8.056,9.751-9.953c1.599-0.659,2.847-1.002,4.784-1.183
	c3.801-0.354,6.621,0.987,8.012,1.589c4.902,2.121,7.781,5.679,9.445,11.069c0.58,1.879,0.775,4.781,0.405,7.414
	c-0.194,1.393-0.479,2.749-0.914,4.062c-1.302,3.947-4.149,6.643-7.413,8.633c-1.546,0.871-2.52,1.174-3.703,1.715
	c-0.185,0.146-0.161,0.108-0.257,0.418c-0.015,1.291-0.22,4.047,0.305,3.961c0.636-0.046,1.813-0.455,2.576-0.765
	c1.997-0.812,3.102-1.299,4.735-2.384c5.187-3.448,7.759-6.938,9.75-13.609C44.409,26.054,44.844,22.532,44.542,20.142
	 M23.823,23.596c0.372-1.259,1.104-2.636,2.134-3.251c0.296-0.184,0.47-0.245,0.914-0.304c2.587-0.05,3.651,0.866,4.264,2.743
	c0.754,2.302,0.37,6.316-0.709,7.818c-0.406,0.564-1.271,1.025-2.032,1.219C24.484,32.815,22.804,27.036,23.823,23.596"/> <path d="M54.25,38.699V17.476h-3.367l0.964-2.402h2.403v-0.825c0-2.438,0.573-4.662,2.046-6.061
	c1.183-1.147,2.759-1.613,4.194-1.613c1.146,0,3.044-0.231,3.652,0.019l0.089,2.439c-0.502-0.215-2.56,0.087-3.491,0.087
	c-2.654,0-3.37,2.367-3.37,5.021v0.932h4.197v2.402h-4.162v23.153L54.25,38.699z"/> <path d="M74.028,28.27c0,1.507,0.073,2.977,0.251,4.16h-2.831l-0.288-2.188h-0.107
	c-0.933,1.362-2.833,2.582-5.309,2.582c-3.513,0-5.308-2.475-5.308-4.984c0-4.196,3.73-6.49,10.438-6.455v-0.359
	c0-1.434-0.151-3.753-3.703-3.717c-1.648,0-3.65,0-4.156,0.083l-0.041-2.352c0.756-0.125,2.478-0.063,4.665-0.063
	c5.343,0,6.389,3.323,6.389,6.802V28.27z M70.944,23.573c-3.44-0.072-7.349,0.536-7.349,3.907c0,2.08,1.361,3.012,2.938,3.012
	c2.295,0,3.766-1.434,4.267-2.903c0.11-0.321,0.144-0.682,0.144-1.004V23.573z"/> <path d="M77.005,11.883c-1.184,0-1.973-0.933-1.973-2.045c0-1.111,0.824-2.007,2.043-2.007
	c1.221,0,2.009,0.896,2.009,2.007c0,1.112-0.788,2.045-2.042,2.045H77.005z M75.499,15.074h3.156V32.43h-3.156V15.074z"/> <path d="M86.254,10.914v4.16h4.52v2.402h-4.52v9.359c0,2.151,0.61,3.372,2.368,3.372c0.86,0,1.364-0.072,1.828-0.216
	l0.145,2.403c-0.608,0.214-1.579,0.43-2.798,0.43c-1.469,0-2.653-0.502-3.406-1.327c-0.859-0.969-1.219-2.511-1.219-4.554v-9.467
	h-2.689v-2.402h2.689v-3.191L86.254,10.914z"/> <path d="M92.173,6.97h3.155v10.829H95.4c0.502-0.896,1.29-1.722,2.261-2.224c0.931-0.574,2.043-0.897,3.227-0.897
	c2.329,0,6.06,1.436,6.06,7.424V32.43h-3.156v-9.969c0-2.832-1.038-5.164-4.016-5.164c-2.043,0-3.622,1.434-4.232,3.155
	c-0.179,0.43-0.214,0.897-0.214,1.506V32.43h-3.155V6.97z"/> <path d="M113.22,20.74c0-2.223-0.034-4.017-0.143-5.666h2.833l0.181,2.977h0.071c1.254-2.152,3.335-3.372,6.132-3.372
	c4.23,0,7.387,3.551,7.387,8.821c0,6.24-3.838,9.324-7.889,9.324c-2.331,0-4.304-1.004-5.342-2.726h-0.073v12.325l-3.157-1.93V20.74
	z M116.377,25.365c0,0.431,0.035,0.896,0.144,1.291c0.538,2.188,2.475,3.693,4.698,3.693c3.334,0,5.27-2.725,5.27-6.706
	c0-3.478-1.791-6.454-5.128-6.454c-2.151,0-4.194,1.506-4.803,3.873c-0.073,0.431-0.181,0.896-0.181,1.291V25.365z"/> <path d="M130.792,20.488c0-2.044-0.035-3.8-0.142-5.415h2.76l0.143,3.407h0.11c0.788-2.331,2.722-3.803,4.839-3.803
	c0.323,0,0.574,0.037,0.862,0.108v2.941c-0.359-0.037-0.682-0.072-1.113-0.072c-2.223,0-3.8,1.685-4.231,4.016
	c-0.072,0.466-0.106,0.968-0.106,1.506v9.252h-3.156L130.792,20.488z"/> <path d="M146.677,32.824c-4.662,0-8.319-3.443-8.319-8.93c0-5.809,3.84-9.216,8.606-9.216
	c4.985,0,8.356,3.623,8.356,8.896c0,6.452-4.483,9.25-8.607,9.25H146.677z M146.787,30.457c3.011,0,5.271-2.832,5.271-6.777
	c0-2.94-1.471-6.634-5.199-6.634c-3.695,0-5.31,3.442-5.31,6.743c0,3.801,2.154,6.669,5.201,6.669H146.787z"/> <path d="M156.431,19.771c0-1.829-0.071-3.263-0.142-4.697h2.76l0.142,2.797h0.11c0.968-1.65,2.581-3.192,5.485-3.192
	c2.332,0,4.124,1.436,4.877,3.479h0.072c0.537-1.003,1.254-1.721,1.973-2.259c1.041-0.789,2.15-1.22,3.799-1.22
	c2.332,0,5.739,1.507,5.739,7.531v10.22h-3.084v-9.826c0-3.371-1.255-5.342-3.764-5.342c-1.829,0-3.193,1.326-3.767,2.833
	c-0.145,0.465-0.252,1.04-0.252,1.578V32.43h-3.083V22.03c0-2.797-1.221-4.769-3.623-4.769c-1.938,0-3.405,1.578-3.908,3.154
	c-0.179,0.467-0.25,1.006-0.25,1.543V32.43h-3.085V19.771z"/> <path d="M184.743,11.883c-1.185,0-1.976-0.933-1.976-2.045c0-1.111,0.827-2.007,2.046-2.007s2.007,0.896,2.007,2.007
	c0,1.112-0.788,2.045-2.044,2.045H184.743z M183.236,15.074h3.154V32.43h-3.154V15.074z"/> <path d="M188.092,29.239c0.967,0.573,2.617,1.218,4.195,1.218c2.258,0,3.334-1.111,3.334-2.582
	c0-1.506-0.896-2.33-3.19-3.191c-3.155-1.146-4.626-2.832-4.626-4.913c0-2.796,2.294-5.092,5.988-5.092
	c1.759,0,3.299,0.466,4.231,1.077l-0.753,2.26c-0.682-0.396-1.936-1.006-3.55-1.006c-1.866,0-2.868,1.077-2.868,2.367
	c0,1.471,1.002,2.117,3.263,2.977c2.976,1.112,4.553,2.618,4.553,5.235c0,3.085-2.399,5.236-6.454,5.236
	c-1.901,0-3.658-0.502-4.878-1.22L188.092,29.239z"/> <path d="M202.364,24.29c0.071,4.267,2.762,6.022,5.915,6.022c2.261,0,3.66-0.393,4.809-0.859l0.572,2.224
	c-1.112,0.502-3.048,1.112-5.811,1.112c-5.306,0-8.532-3.55-8.532-8.75c0-5.271,3.118-9.395,8.175-9.395
	c5.664,0,7.136,4.985,7.136,8.175c0,0.646-0.034,1.147-0.107,1.506L202.364,24.29z M211.579,22.031
	c0.037-1.973-0.825-5.128-4.339-5.128c-3.225,0-4.59,2.94-4.841,5.128H211.579z"/> <path d="M135.286,41.938c-0.295,0.133-0.944,0.274-1.769,0.274c-2.174,0-3.495-1.19-3.495-2.994
	c0-1.956,1.565-3.135,3.656-3.135c0.823,0,1.411,0.149,1.666,0.265l-0.271,0.862c-0.327-0.124-0.773-0.229-1.344-0.229
	c-1.39,0-2.396,0.758-2.396,2.184c0,1.303,0.883,2.141,2.386,2.141c0.509,0,1.037-0.088,1.361-0.221L135.286,41.938z"/> <polygon points="145.724,36.18 145.724,38.557 148.62,38.557 148.62,36.18 149.868,36.18 149.868,42.114 148.62,42.114 
	148.62,39.499 145.724,39.499 145.724,42.114 144.474,42.114 144.474,36.18 "/> <path d="M160.664,36.18v3.461c0,1.162,0.559,1.697,1.4,1.697c0.904,0,1.443-0.535,1.443-1.697V36.18h1.25v3.39
	c0,1.831-1.089,2.642-2.733,2.642c-1.585,0-2.609-0.766-2.609-2.633V36.18H160.664z"/> <path d="M174.31,36.259c0.47-0.071,1.171-0.123,1.893-0.123c0.983,0,1.652,0.141,2.11,0.476
	c0.375,0.273,0.587,0.687,0.587,1.188c0,0.767-0.598,1.286-1.236,1.488v0.027c0.487,0.158,0.781,0.572,0.953,1.145
	c0.215,0.74,0.396,1.426,0.54,1.655h-1.291c-0.101-0.177-0.263-0.659-0.456-1.399c-0.193-0.775-0.52-1.022-1.23-1.039h-0.629v2.438
	h-1.24V36.259z M175.55,38.883h0.742c0.845,0,1.371-0.387,1.371-0.979c0-0.65-0.526-0.95-1.34-0.95
	c-0.397,0-0.651,0.026-0.773,0.053V38.883z"/> <path d="M193.12,41.938c-0.296,0.133-0.943,0.274-1.767,0.274c-2.173,0-3.495-1.19-3.495-2.994
	c0-1.956,1.565-3.135,3.656-3.135c0.822,0,1.413,0.149,1.666,0.265l-0.273,0.862c-0.323-0.124-0.772-0.229-1.341-0.229
	c-1.391,0-2.397,0.758-2.397,2.184c0,1.303,0.885,2.141,2.387,2.141c0.508,0,1.036-0.088,1.361-0.221L193.12,41.938z"/> <polygon points="203.56,36.18 203.56,38.557 206.456,38.557 206.456,36.18 207.705,36.18 207.705,42.114 
	206.456,42.114 206.456,39.499 203.56,39.499 203.56,42.114 202.31,42.114 202.31,36.18 "/> </g> </symbol><symbol viewBox="0 0 300 300.974" id="logo-fp"><title>logo-fp</title> <style type="text/css"> <![CDATA[ .st1{fill-rule:evenodd;clip-rule:evenodd;} ]]> </style> <g id="logo-fp-logo"> <path class="st1" d="M299.325,135.364c-1.182-9.299-2.242-17.291-4.783-25.252c-11.06-34.752-30.438-63.002-57.329-81.899
	c-6.686-4.698-9.646-5.834-16.983-10.103c-16.892-9.863-53.563-22.093-91.527-16.853c-10.853,1.499-20.472,3.958-30.023,7.843
	c-40.39,16.432-71.199,44.106-88.045,83.947c-16.255,38.46-12.702,83.892,2.727,119.424c22.178,51.102,70.843,89.432,145.396,88.486
	c-0.091-5.246-0.024-20.901-0.024-20.901v-62.802h0.695c8.787,18.647,40.267,27.77,62.089,14.333
	c16.787-10.329,23.979-28.83,26.184-48.384c1.17-10.426,0.616-19.701-0.938-25.319c-6.094-22.154-15.563-36.333-35.478-44.362
	c-20.634-8.309-43.905-0.192-53.125,16.41c-0.159-1.243-0.073-14.271-0.11-15.728h-49.821
	c-0.555-32.759,16.136-38.777,48.457-38.223V46.636c-51.62-0.262-84.904,15.247-84.626,67.567h-21.84
	c-4.345,9.013-4.954,18.16-4.774,23.887c8.047-0.058,25.664,0.457,26.614,0.683v83.252c2.812,7.008,26.916,22.047,36.169,23.223
	V138.09c4.609-0.058,12.784-0.036,14.335,0.189v87.853c0,6.733,1.042,31.979-0.679,33.448c-1.359,0.835-7.444-1.81-9.558-2.724
	c-9.595-4.181-17.4-7.739-25.255-12.968c-23.778-15.862-37.092-35.551-46.407-66.214c-2.395-7.897-4.859-26.355-3.412-38.214
	c1.39-11.407,2.754-19.006,6.14-27.306c12.72-31.111,34.502-54.127,65.522-66.878c10.746-4.421,19.125-6.737,32.156-7.949
	c25.535-2.382,44.475,6.627,53.829,10.676c32.948,14.256,52.302,38.168,63.478,74.392c3.888,12.623,5.216,32.123,2.724,49.813
	c-1.304,9.354-3.229,18.482-6.137,27.299c-8.762,26.526-27.885,44.649-49.821,58.03c-10.396,5.838-16.929,7.885-24.887,11.523
	c-1.243,0.981-1.091,0.726-1.73,2.797c-0.104,8.689-1.475,27.196,2.047,26.624c4.272-0.312,12.188-3.06,17.318-5.138
	c13.419-5.447,20.853-8.726,31.821-16.02c34.856-23.175,52.132-46.647,65.52-91.455C298.441,175.091,301.361,151.43,299.325,135.364
	 M160.103,158.565c2.493-8.452,7.429-17.714,14.327-21.837c1.992-1.237,3.15-1.654,6.142-2.047
	c17.392-0.332,24.54,5.816,28.665,18.424c5.058,15.478,2.475,42.449-4.777,52.54c-2.718,3.791-8.537,6.898-13.656,8.202
	C164.545,220.52,153.26,181.697,160.103,158.565"/> </g></symbol><symbol viewBox="0 0 286.148 286.044" id="logo-fpstudents-mark"><title>logo-fpstudents-mark</title> <g> <path style="fill-rule:evenodd;clip-rule:evenodd;" d="M185.651,196.238c3.545-0.938,7.569-3.161,9.447-5.877
		c5.025-7.242,6.809-26.607,3.305-37.711c-2.852-9.046-7.795-13.46-19.841-13.226c-2.058,0.291-2.865,0.581-4.252,1.472
		c-4.783,2.956-8.194,9.606-9.926,15.677C159.655,173.168,167.463,201.026,185.651,196.238z"/> <path style="fill-rule:evenodd;clip-rule:evenodd;" d="M214.287,31.231c3.226-5.567,11.406-19.668,15.337-26.429
		c-11.365-2.88-23.198-4.543-35.384-4.772c-86.481-1.67-158.27,67.63-163.27,156.059c-6.622-0.124-23.981-0.448-30.97-0.579
		c3.27,11.651,7.821,23.113,13.724,34.169c41.854,78.486,135.65,108.264,212.029,68.549c3.166,5.911,11.38,21.298,14.865,27.816
		c8.38-8.972,15.935-19.061,22.414-30.219C307.668,179.017,285.657,79.944,214.287,31.231z M257.939,176.158
		c-9.261,32.161-21.226,48.996-45.357,65.628c-7.595,5.225-12.74,7.573-22.026,11.482c-3.551,1.499-9.035,3.468-11.993,3.688
		c-2.433,0.414-1.486-12.871-1.413-19.092c0.441-1.486,0.334-1.313,1.201-2.009c5.502-2.62,10.033-4.085,17.222-8.276
		c15.19-9.6,28.427-22.588,34.493-41.635c2.012-6.325,3.342-12.864,4.25-19.577c1.719-12.7,0.811-26.691-1.892-35.758
		c-7.742-25.988-21.135-43.148-43.934-53.37c-6.481-2.906-19.6-9.37-37.27-7.664c-9.024,0.877-14.83,2.534-22.265,5.696
		c-21.477,9.158-36.556,25.669-45.359,47.996c-2.341,5.96-3.287,11.416-4.25,19.592c-1.003,8.509,0.703,21.753,2.364,27.417
		c6.443,22.014,15.661,36.139,32.124,47.504c5.434,3.757,10.839,6.315,17.478,9.31c1.47,0.655,5.676,2.554,6.619,1.961
		c1.194-1.055,0.474-19.172,0.474-23.998v-63.044c-1.076-0.158-6.736-0.172-9.925-0.131v76.89
		c-6.408-0.845-23.088-11.637-25.041-16.659v-59.742c-0.657-0.166-12.857-0.531-18.424-0.49c-0.126-4.109,0.299-10.677,3.307-17.147
		h15.117c-0.193-37.533,22.852-48.667,58.587-48.481v21.064c-22.383-0.408-33.929,3.922-33.547,27.417h34.493
		c0.02,1.05-0.033,10.399,0.08,11.29c6.368-11.913,22.492-17.741,36.776-11.782c13.785,5.767,20.335,15.939,24.56,31.843
		c1.071,4.026,1.463,10.684,0.638,18.171c-1.526,14.037-6.503,27.305-18.109,34.715c-15.111,9.627-36.91,3.092-42.999-10.282h-0.474
		v45.055c0,0-0.046,11.22,0.013,14.99c-51.61,0.683-85.295-26.82-100.649-63.471c-10.688-25.518-13.146-58.113-1.892-85.702
		c11.659-28.59,32.985-48.452,60.947-60.24c6.616-2.791,13.275-4.55,20.791-5.627c26.281-3.764,51.672,5.021,63.371,12.085
		c5.076,3.073,7.115,3.881,11.752,7.257c18.616,13.564,32.027,33.838,39.689,58.763c1.752,5.717,2.491,11.449,3.305,18.128
		C262.183,151.449,260.164,168.423,257.939,176.158z"/> </g>       </symbol><symbol viewBox="0 0 1114.217 288" id="logo-fpstudents"><title>logo-fpstudents</title> <g> <path style="fill:#ffffff;" d="M187.34,196.869c3.545-0.938,7.569-3.161,9.447-5.877c5.025-7.242,6.809-26.607,3.305-37.711
		c-2.852-9.046-7.795-13.46-19.841-13.226c-2.058,0.291-2.865,0.581-4.252,1.472c-4.783,2.956-8.194,9.606-9.926,15.677
		C161.343,173.799,169.152,201.657,187.34,196.869z"/> <path style="fill:#ffffff;" d="M215.975,31.862c3.226-5.567,11.406-19.668,15.337-26.429c-11.365-2.88-23.198-4.543-35.384-4.772
		c-86.481-1.67-158.27,67.63-163.27,156.059c-6.622-0.124-23.981-0.448-30.97-0.579c3.27,11.651,7.821,23.113,13.724,34.169
		c41.854,78.486,135.65,108.264,212.029,68.549c3.166,5.911,11.38,21.298,14.865,27.816c8.38-8.972,15.935-19.061,22.414-30.219
		C309.356,179.648,287.345,80.575,215.975,31.862z M259.628,176.789c-9.261,32.161-21.226,48.996-45.357,65.628
		c-7.595,5.225-12.74,7.573-22.026,11.482c-3.551,1.499-9.035,3.468-11.993,3.688c-2.433,0.414-1.486-12.871-1.414-19.093
		c0.441-1.486,0.334-1.313,1.201-2.009c5.502-2.62,10.033-4.084,17.222-8.276c15.19-9.6,28.427-22.588,34.493-41.635
		c2.012-6.325,3.342-12.864,4.25-19.577c1.719-12.7,0.811-26.691-1.892-35.758c-7.742-25.988-21.135-43.148-43.934-53.37
		c-6.481-2.906-19.6-9.37-37.27-7.664c-9.024,0.877-14.83,2.534-22.265,5.696c-21.477,9.158-36.556,25.669-45.359,47.996
		c-2.341,5.96-3.287,11.416-4.25,19.592c-1.003,8.509,0.703,21.753,2.364,27.417c6.443,22.014,15.661,36.139,32.124,47.504
		c5.434,3.757,10.839,6.315,17.478,9.31c1.47,0.655,5.677,2.554,6.619,1.961c1.194-1.055,0.474-19.172,0.474-23.998v-63.044
		c-1.076-0.158-6.736-0.172-9.925-0.131v76.89c-6.408-0.845-23.088-11.637-25.041-16.659v-59.742
		c-0.657-0.166-12.857-0.531-18.424-0.49c-0.126-4.109,0.299-10.677,3.307-17.147h15.117c-0.193-37.533,22.852-48.667,58.587-48.481
		v21.064c-22.383-0.408-33.929,3.922-33.547,27.417h34.493c0.02,1.05-0.033,10.399,0.08,11.29
		c6.368-11.913,22.492-17.741,36.776-11.782c13.785,5.767,20.335,15.939,24.56,31.843c1.071,4.026,1.463,10.684,0.638,18.171
		c-1.526,14.037-6.503,27.305-18.109,34.715c-15.111,9.627-36.91,3.092-42.999-10.282h-0.474v45.055c0,0-0.046,11.22,0.013,14.99
		c-51.61,0.683-85.295-26.82-100.649-63.471c-10.688-25.518-13.146-58.113-1.892-85.702c11.659-28.59,32.985-48.452,60.947-60.24
		c6.616-2.791,13.275-4.55,20.791-5.627c26.281-3.764,51.672,5.021,63.371,12.085c5.076,3.073,7.115,3.881,11.752,7.257
		c18.616,13.564,32.027,33.838,39.689,58.763c1.752,5.717,2.491,11.449,3.305,18.128
		C263.871,152.08,261.853,169.054,259.628,176.789z"/> </g> <g> <path style="fill:#ffffff;" d="M360.626,209.873c-10.87,0-20.656-1.768-29.362-5.303c-8.706-3.534-16.066-8.519-22.081-14.958
		l19.786-20.419c10.867,10.026,22.264,15.037,34.189,15.037c3.693,0,6.7-0.737,9.023-2.216c2.319-1.475,3.481-3.481,3.481-6.015
		c0-1.053-0.237-2.029-0.712-2.928c-0.475-0.895-1.399-1.793-2.769-2.69c-1.373-0.895-3.246-1.899-5.62-3.007
		c-2.374-1.108-5.515-2.399-9.418-3.879c-4.431-1.686-8.415-3.455-11.951-5.303c-3.536-1.843-6.544-3.956-9.022-6.33
		c-2.481-2.374-4.406-5.09-5.778-8.152c-1.371-3.059-2.057-6.648-2.057-10.763c0-5.486,1.187-10.551,3.561-15.196
		c2.374-4.642,5.644-8.627,9.813-11.951c4.168-3.324,9.127-5.908,14.879-7.756c5.75-1.845,12.003-2.77,18.758-2.77
		c9.813,0,18.492,1.479,26.039,4.432c7.543,2.955,14.008,6.964,19.389,12.03l-18.995,21.21c-4.221-3.692-8.733-6.648-13.533-8.864
		c-4.804-2.216-10.051-3.325-15.75-3.325c-3.694,0-6.623,0.767-8.785,2.295c-2.164,1.531-3.244,3.403-3.244,5.619
		c0,1.162,0.262,2.137,0.791,2.928c0.528,0.791,1.449,1.61,2.77,2.453c1.317,0.846,3.19,1.795,5.619,2.849
		c2.427,1.056,5.541,2.322,9.339,3.798c4.22,1.583,8.097,3.324,11.635,5.224c3.534,1.899,6.569,4.036,9.101,6.411
		c2.532,2.374,4.51,5.143,5.936,8.309c1.424,3.165,2.136,6.806,2.136,10.921c0,5.698-1.162,10.896-3.483,15.591
		c-2.322,4.697-5.566,8.733-9.734,12.108c-4.17,3.379-9.155,5.991-14.958,7.836C373.817,208.948,367.485,209.873,360.626,209.873z"/> <path style="fill:#ffffff;" d="M449.582,124.083h-33.24l7.282-26.909h97.029l-7.123,26.909H480.29l-22.477,83.891h-30.866
		L449.582,124.083z"/> <path style="fill:#ffffff;" d="M547.401,210.031c-14.353,0-25.406-3.402-33.161-10.209c-7.756-6.806-11.633-16.328-11.633-28.571
		c0-2.743,0.209-5.619,0.633-8.626c0.42-3.007,1.053-6.039,1.899-9.1l15.195-56.351h31.024l-15.67,58.566
		c-0.529,1.796-0.925,3.537-1.187,5.223c-0.265,1.69-0.395,3.431-0.395,5.224c0,5.065,1.475,9.022,4.431,11.872
		c2.953,2.849,7.227,4.274,12.821,4.274c6.016,0,10.974-1.952,14.879-5.857c2.11-2.003,3.904-4.456,5.382-7.36
		c1.477-2.901,2.795-6.569,3.958-11.002l16.462-60.939h31.024l-17.57,65.53c-3.905,14.459-9.655,25.484-17.253,33.083
		c-4.961,4.961-10.87,8.575-17.727,10.842C563.65,208.896,555.948,210.031,547.401,210.031z"/> <path style="fill:#ffffff;" d="M629.551,97.174h35.773c10.763,0,19.628,1.321,26.591,3.958c6.965,2.639,12.557,6.069,16.779,10.288
		c8.018,8.021,12.03,18.836,12.03,32.449c0,8.337-1.532,16.199-4.591,23.584c-3.061,7.387-7.598,14.088-13.613,20.103
		c-6.648,6.648-14.775,11.712-24.376,15.195c-9.603,3.483-20.841,5.224-33.714,5.224h-44.637L629.551,97.174z M648.07,180.748
		c6.435,0,12.398-0.949,17.886-2.848c5.486-1.9,10.075-4.695,13.771-8.39c2.953-2.952,5.275-6.435,6.965-10.446
		c1.686-4.008,2.532-8.23,2.532-12.663c0-3.376-0.475-6.304-1.425-8.785c-0.949-2.478-2.322-4.615-4.114-6.411
		c-2.112-2.109-4.908-3.771-8.39-4.986c-3.481-1.212-7.914-1.82-13.296-1.82h-8.864l-15.195,56.349H648.07z"/> <path style="fill:#ffffff;" d="M738.134,97.174h88.799l-7.123,26.118h-58.25l-4.591,16.778h52.868l-6.49,24.218h-52.868
		l-4.749,17.569h59.2l-6.965,26.118h-89.59L738.134,97.174z"/> <path style="fill:#ffffff;" d="M832.154,97.174h28.65l28.65,61.572l16.62-61.572h30.549l-29.758,110.8h-26.909l-29.916-63.789
		l-17.095,63.789h-30.549L832.154,97.174z"/> <path style="fill:#ffffff;" d="M962.581,124.083h-33.24l7.282-26.909h97.029l-7.123,26.909h-33.239l-22.477,83.891h-30.866
		L962.581,124.083z"/> <path style="fill:#ffffff;" d="M1054.068,209.873c-10.87,0-20.656-1.768-29.362-5.303c-8.706-3.534-16.066-8.519-22.081-14.958
		l19.786-20.419c10.867,10.026,22.264,15.037,34.189,15.037c3.693,0,6.701-0.737,9.023-2.216c2.319-1.475,3.481-3.481,3.481-6.015
		c0-1.053-0.237-2.029-0.712-2.928c-0.475-0.895-1.399-1.793-2.769-2.69c-1.373-0.895-3.246-1.899-5.62-3.007
		s-5.515-2.399-9.418-3.879c-4.431-1.686-8.415-3.455-11.951-5.303c-3.536-1.843-6.544-3.956-9.022-6.33
		c-2.481-2.374-4.406-5.09-5.778-8.152c-1.371-3.059-2.057-6.648-2.057-10.763c0-5.486,1.187-10.551,3.561-15.196
		c2.374-4.642,5.644-8.627,9.813-11.951c4.168-3.324,9.127-5.908,14.879-7.756c5.75-1.845,12.003-2.77,18.758-2.77
		c9.813,0,18.492,1.479,26.038,4.432c7.543,2.955,14.008,6.964,19.389,12.03l-18.995,21.21c-4.221-3.692-8.733-6.648-13.533-8.864
		c-4.804-2.216-10.051-3.325-15.75-3.325c-3.694,0-6.623,0.767-8.785,2.295c-2.164,1.531-3.244,3.403-3.244,5.619
		c0,1.162,0.262,2.137,0.791,2.928c0.528,0.791,1.449,1.61,2.771,2.453c1.317,0.846,3.19,1.795,5.619,2.849
		c2.427,1.056,5.541,2.322,9.339,3.798c4.22,1.583,8.097,3.324,11.635,5.224c3.534,1.899,6.569,4.036,9.101,6.411
		c2.532,2.374,4.51,5.143,5.936,8.309c1.424,3.165,2.136,6.806,2.136,10.921c0,5.698-1.162,10.896-3.483,15.591
		c-2.322,4.697-5.566,8.733-9.734,12.108c-4.17,3.379-9.155,5.991-14.958,7.836C1067.259,208.948,1060.927,209.873,1054.068,209.873
		z"/> </g>       </symbol></svg>