<svg xmlns="http://www.w3.org/2000/svg"><symbol viewBox="0 0 231 231" id="download"><title>download</title> <g id="download-download"> <path d="M115.5,231C51.813,231,0,179.187,0,115.5C0,51.813,51.813,0,115.5,0C179.187,0,231,51.813,231,115.5
		C231,179.187,179.187,231,115.5,231z M115.5,9C56.776,9,9,56.776,9,115.5C9,174.225,56.776,222,115.5,222
		c58.725,0,106.5-47.775,106.5-106.5C222,56.776,174.225,9,115.5,9z"/> <g> <path d="M127.747,113.872V64.893h-24.495v48.979H82.847l32.653,32.643l32.653-32.643H127.747z"/> <rect x="54.283" y="146.515" width="122.433" height="19.592"/> <path d="M115.5,231C51.813,231,0,179.187,0,115.5C0,51.813,51.813,0,115.5,0C179.187,0,231,51.813,231,115.5
			C231,179.187,179.187,231,115.5,231z M115.5,9C56.776,9,9,56.776,9,115.5C9,174.225,56.776,222,115.5,222
			c58.725,0,106.5-47.775,106.5-106.5C222,56.776,174.225,9,115.5,9z"/> </g> </g> </symbol><symbol viewBox="0 0 231 231" id="email"><title>email</title> <g id="email-email"> <path d="M115.5,231C51.813,231,0,179.187,0,115.5C0,51.813,51.813,0,115.5,0C179.187,0,231,51.813,231,115.5
		C231,179.187,179.187,231,115.5,231z M115.5,9C56.776,9,9,56.776,9,115.5C9,174.225,56.776,222,115.5,222
		c58.725,0,106.5-47.775,106.5-106.5C222,56.776,174.225,9,115.5,9z"/> <path d="M115.565,127.827L98.02,113.423l-38.182,45.08h111.487l-38.186-45.528C133.139,112.975,115.565,127.827,115.565,127.827z
		 M175.501,72.497H55.659l59.923,50.401C115.582,122.898,175.501,72.497,175.501,72.497z M135.772,110.705l40.031,47.756V76.805
		C175.802,76.805,135.772,110.705,135.772,110.705z M55.198,76.805v81.655l40.031-47.756
		C95.228,110.705,55.198,76.805,55.198,76.805z"/> </g> </symbol><symbol viewBox="0 0 231 231" id="facebook"><title>facebook</title> <g id="facebook-facebook"> <path d="M115.5,231C51.813,231,0,179.187,0,115.5C0,51.813,51.813,0,115.5,0C179.187,0,231,51.813,231,115.5
		C231,179.187,179.187,231,115.5,231z M115.5,9C56.776,9,9,56.776,9,115.5C9,174.225,56.776,222,115.5,222
		c58.725,0,106.5-47.775,106.5-106.5C222,56.776,174.225,9,115.5,9z"/> <path d="M141.299,66.535v15.766h-9.376c-3.425,0-5.734,0.716-6.929,2.148c-1.195,1.432-1.793,3.581-1.793,6.448v11.287h17.497
		l-2.328,17.677h-15.17v45.326h-18.273v-45.326H89.701v-17.677h15.227V89.166c0-7.405,2.07-13.148,6.211-17.23
		c4.141-4.082,9.655-6.123,16.542-6.123c5.853,0,10.392,0.238,13.618,0.715V66.535z"/> </g> </symbol><symbol viewBox="0 0 231 231" id="listen"><title>listen</title> <g id="listen-listen"> <path d="M115.5,231C51.813,231,0,179.187,0,115.5C0,51.813,51.813,0,115.5,0C179.187,0,231,51.813,231,115.5
		C231,179.187,179.187,231,115.5,231z M115.5,9C56.776,9,9,56.776,9,115.5C9,174.225,56.776,222,115.5,222
		c58.725,0,106.5-47.775,106.5-106.5C222,56.776,174.225,9,115.5,9z"/> <path d="M153.34,163.921v-8.903h-0.111c0.04-0.739,0.111-1.474,0.111-2.226v-48.969c0-20.896-16.943-37.84-37.84-37.84
		s-37.84,16.943-37.84,37.84v48.969c0,0.752,0.071,1.487,0.111,2.226H77.66v8.903c0,0-22.259-0.374-22.259-24.485
		c0-13.676,7.154-19.708,13.355-22.37v-13.244c0-25.816,20.928-46.743,46.743-46.743s46.743,20.928,46.743,46.743v13.244
		c6.201,2.667,13.355,8.694,13.355,22.37C175.598,163.547,153.34,163.921,153.34,163.921z M86.564,163.921h-4.452v-48.969h4.452
		V163.921z M148.888,163.921h-4.452v-48.969h4.452V163.921z"/> </g> </symbol><symbol viewBox="0 0 231 231" id="more"><title>more</title> <g id="more-more"> <path d="M115.5,231C51.813,231,0,179.187,0,115.5C0,51.813,51.813,0,115.5,0C179.187,0,231,51.813,231,115.5
		C231,179.187,179.187,231,115.5,231z M115.5,9C56.776,9,9,56.776,9,115.5C9,174.225,56.776,222,115.5,222
		c58.725,0,106.5-47.775,106.5-106.5C222,56.776,174.225,9,115.5,9z"/> <path d="M115.506,101.393c-7.791,0-14.113,6.316-14.113,14.107s6.323,14.107,14.113,14.107s14.101-6.316,14.101-14.107
		S123.297,101.393,115.506,101.393z M70.62,101.393c-7.791,0-14.113,6.316-14.113,14.107s6.323,14.107,14.113,14.107
		s14.101-6.322,14.101-14.107S78.411,101.393,70.62,101.393z M160.392,101.393c-7.791,0-14.113,6.316-14.113,14.107
		s6.323,14.107,14.113,14.107s14.101-6.316,14.101-14.107S168.183,101.393,160.392,101.393z"/> </g> </symbol><symbol viewBox="0 0 231 231" id="play-big"><title>play-big</title> <g id="play-big-play-big"> <path style="fill-opacity:0.5;" d="M231,115.5c0,63.69-51.81,115.5-115.5,115.5S0,179.19,0,115.5S51.81,0,115.5,0
		S231,51.81,231,115.5z"/> <path style="fill:#FFFFFF;" d="M115.5,231C51.813,231,0,179.187,0,115.5C0,51.813,51.813,0,115.5,0C179.187,0,231,51.813,231,115.5
		C231,179.187,179.187,231,115.5,231z M115.5,9C56.776,9,9,56.776,9,115.5C9,174.225,56.776,222,115.5,222
		c58.725,0,106.5-47.775,106.5-106.5C222,56.776,174.225,9,115.5,9z"/> <path style="fill:#FFFFFF;" d="M178.118,117.85L77.387,173.827c-1.162,0.657-2.16,0.733-2.995,0.228
		c-0.835-0.505-1.252-1.414-1.252-2.728V59.673c0-1.314,0.417-2.223,1.252-2.728c0.835-0.505,1.833-0.429,2.995,0.228
		l100.731,55.977c1.162,0.657,1.743,1.44,1.743,2.35S179.28,117.193,178.118,117.85z"/> </g>  </symbol><symbol viewBox="0 0 231 231" id="play"><title>play</title> <g id="play-play"> <path d="M115.5,231C51.813,231,0,179.187,0,115.5C0,51.813,51.813,0,115.5,0C179.187,0,231,51.813,231,115.5
		C231,179.187,179.187,231,115.5,231z M115.5,9C56.776,9,9,56.776,9,115.5C9,174.225,56.776,222,115.5,222
		c58.725,0,106.5-47.775,106.5-106.5C222,56.776,174.225,9,115.5,9z"/> <path d="M178.118,117.85L77.387,173.827c-1.162,0.657-2.16,0.733-2.995,0.228c-0.835-0.505-1.252-1.414-1.252-2.728V59.673
		c0-1.314,0.417-2.223,1.252-2.728c0.835-0.505,1.833-0.429,2.995,0.228l100.731,55.977c1.162,0.657,1.743,1.44,1.743,2.35
		S179.28,117.193,178.118,117.85z"/> </g> </symbol><symbol viewBox="0 0 231 231" id="share"><title>share</title> <g id="share-share"> <path d="M115.5,231C51.813,231,0,179.187,0,115.5C0,51.813,51.813,0,115.5,0C179.187,0,231,51.813,231,115.5
		C231,179.187,179.187,231,115.5,231z M115.5,9C56.776,9,9,56.776,9,115.5C9,174.225,56.776,222,115.5,222
		c58.725,0,106.5-47.775,106.5-106.5C222,56.776,174.225,9,115.5,9z"/> <path d="M170.561,101.736c0,1.065-0.389,1.986-1.168,2.765l-31.466,31.466c-0.779,0.779-1.7,1.168-2.765,1.168
		s-1.986-0.389-2.765-1.168s-1.168-1.7-1.168-2.765v-15.733h-13.766c-4.015,0-7.609,0.123-10.785,0.37
		c-3.175,0.246-6.33,0.687-9.463,1.322c-3.133,0.635-5.858,1.505-8.173,2.612c-2.315,1.107-4.476,2.53-6.482,4.271
		c-2.006,1.741-3.645,3.81-4.917,6.207c-1.272,2.397-2.266,5.234-2.981,8.511c-0.716,3.278-1.074,6.985-1.074,11.123
		c0,2.252,0.102,4.772,0.307,7.56c0,0.246,0.051,0.728,0.153,1.443s0.153,1.259,0.153,1.628c0,0.614-0.174,1.126-0.523,1.538
		s-0.83,0.616-1.443,0.614c-0.656,0-1.23-0.349-1.723-1.046c-0.286-0.37-0.552-0.821-0.798-1.353
		c-0.246-0.532-0.523-1.147-0.83-1.845c-0.307-0.697-0.522-1.189-0.645-1.475c-5.202-11.676-7.803-20.916-7.803-27.717
		c0-8.152,1.086-14.974,3.257-20.465c6.637-16.512,24.562-24.767,53.775-24.767h13.766V70.266c0-1.065,0.389-1.986,1.168-2.765
		s1.7-1.168,2.765-1.168s1.986,0.389,2.765,1.168l31.466,31.466c0.779,0.779,1.168,1.7,1.168,2.765L170.561,101.736z"/> </g> </symbol><symbol viewBox="0 0 231 231" id="twitter"><title>twitter</title> <g id="twitter-twitter"> <path d="M115.5,231C51.813,231,0,179.187,0,115.5C0,51.813,51.813,0,115.5,0C179.187,0,231,51.813,231,115.5
		C231,179.187,179.187,231,115.5,231z M115.5,9C56.776,9,9,56.776,9,115.5C9,174.225,56.776,222,115.5,222
		c58.725,0,106.5-47.775,106.5-106.5C222,56.776,174.225,9,115.5,9z"/> <path d="M172.809,79.953c-4.216,1.87-8.75,3.134-13.507,3.703c4.853-2.912,8.582-7.518,10.34-13.009
		c-4.545,2.693-9.577,4.653-14.932,5.706c-4.291-4.57-10.401-7.425-17.164-7.425c-12.987,0-23.514,10.527-23.514,23.514
		c0,1.845,0.208,3.639,0.609,5.358C95.1,96.82,77.772,87.457,66.175,73.231c-2.024,3.474-3.184,7.511-3.184,11.823
		c0,8.159,4.151,15.355,10.462,19.574c-3.854-0.122-7.479-1.178-10.652-2.941c-0.004,0.097-0.004,0.197-0.004,0.297
		c0,11.393,8.105,20.896,18.861,23.055c-1.974,0.537-4.051,0.824-6.196,0.824c-1.515,0-2.987-0.147-4.423-0.423
		c2.991,9.341,11.676,16.139,21.967,16.329c-8.048,6.307-18.188,10.065-29.205,10.065c-1.898,0-3.768-0.111-5.609-0.33
		c10.405,6.673,22.765,10.566,36.046,10.566c43.253,0,66.903-35.831,66.903-66.906c0-1.021-0.021-2.034-0.068-3.041
		c4.595-3.317,8.582-7.457,11.734-12.171H172.809z"/> </g> </symbol></svg>