<?xml version="1.0" encoding="iso-8859-1"?>
<!-- Generator: Adobe Illustrator 18.1.1, SVG Export Plug-In . SVG Version: 6.00 Build 0)  -->
<svg version="1.1" xmlns="http://www.w3.org/2000/svg" xmlns:xlink="http://www.w3.org/1999/xlink" x="0px" y="0px"
	 viewBox="0 0 231 231" style="enable-background:new 0 0 231 231;" xml:space="preserve">
<g id="email">
	<path d="M115.5,231C51.813,231,0,179.187,0,115.5C0,51.813,51.813,0,115.5,0C179.187,0,231,51.813,231,115.5
		C231,179.187,179.187,231,115.5,231z M115.5,9C56.776,9,9,56.776,9,115.5C9,174.225,56.776,222,115.5,222
		c58.725,0,106.5-47.775,106.5-106.5C222,56.776,174.225,9,115.5,9z"/>
	<path d="M115.565,127.827L98.02,113.423l-38.182,45.08h111.487l-38.186-45.528C133.139,112.975,115.565,127.827,115.565,127.827z
		 M175.501,72.497H55.659l59.923,50.401C115.582,122.898,175.501,72.497,175.501,72.497z M135.772,110.705l40.031,47.756V76.805
		C175.802,76.805,135.772,110.705,135.772,110.705z M55.198,76.805v81.655l40.031-47.756
		C95.228,110.705,55.198,76.805,55.198,76.805z"/>
</g>
</svg>
