<?xml version="1.0" encoding="iso-8859-1"?>
<!-- Generator: Adobe Illustrator 18.1.1, SVG Export Plug-In . SVG Version: 6.00 Build 0)  -->
<svg version="1.1" xmlns="http://www.w3.org/2000/svg" xmlns:xlink="http://www.w3.org/1999/xlink" x="0px" y="0px"
	 viewBox="0 0 231 231" style="enable-background:new 0 0 231 231;" xml:space="preserve">
<g id="more">
	<path d="M115.5,231C51.813,231,0,179.187,0,115.5C0,51.813,51.813,0,115.5,0C179.187,0,231,51.813,231,115.5
		C231,179.187,179.187,231,115.5,231z M115.5,9C56.776,9,9,56.776,9,115.5C9,174.225,56.776,222,115.5,222
		c58.725,0,106.5-47.775,106.5-106.5C222,56.776,174.225,9,115.5,9z"/>
	<path d="M115.506,101.393c-7.791,0-14.113,6.316-14.113,14.107s6.323,14.107,14.113,14.107s14.101-6.316,14.101-14.107
		S123.297,101.393,115.506,101.393z M70.62,101.393c-7.791,0-14.113,6.316-14.113,14.107s6.323,14.107,14.113,14.107
		s14.101-6.322,14.101-14.107S78.411,101.393,70.62,101.393z M160.392,101.393c-7.791,0-14.113,6.316-14.113,14.107
		s6.323,14.107,14.113,14.107s14.101-6.316,14.101-14.107S168.183,101.393,160.392,101.393z"/>
</g>
</svg>
