<?xml version="1.0" encoding="iso-8859-1"?>
<!-- Generator: Adobe Illustrator 18.1.1, SVG Export Plug-In . SVG Version: 6.00 Build 0)  -->
<svg version="1.1" xmlns="http://www.w3.org/2000/svg" xmlns:xlink="http://www.w3.org/1999/xlink" x="0px" y="0px"
	 viewBox="0 0 231 231" style="enable-background:new 0 0 231 231;" xml:space="preserve">
<g id="share">
	<path d="M115.5,231C51.813,231,0,179.187,0,115.5C0,51.813,51.813,0,115.5,0C179.187,0,231,51.813,231,115.5
		C231,179.187,179.187,231,115.5,231z M115.5,9C56.776,9,9,56.776,9,115.5C9,174.225,56.776,222,115.5,222
		c58.725,0,106.5-47.775,106.5-106.5C222,56.776,174.225,9,115.5,9z"/>
	<path d="M170.561,101.736c0,1.065-0.389,1.986-1.168,2.765l-31.466,31.466c-0.779,0.779-1.7,1.168-2.765,1.168
		s-1.986-0.389-2.765-1.168s-1.168-1.7-1.168-2.765v-15.733h-13.766c-4.015,0-7.609,0.123-10.785,0.37
		c-3.175,0.246-6.33,0.687-9.463,1.322c-3.133,0.635-5.858,1.505-8.173,2.612c-2.315,1.107-4.476,2.53-6.482,4.271
		c-2.006,1.741-3.645,3.81-4.917,6.207c-1.272,2.397-2.266,5.234-2.981,8.511c-0.716,3.278-1.074,6.985-1.074,11.123
		c0,2.252,0.102,4.772,0.307,7.56c0,0.246,0.051,0.728,0.153,1.443s0.153,1.259,0.153,1.628c0,0.614-0.174,1.126-0.523,1.538
		s-0.83,0.616-1.443,0.614c-0.656,0-1.23-0.349-1.723-1.046c-0.286-0.37-0.552-0.821-0.798-1.353
		c-0.246-0.532-0.523-1.147-0.83-1.845c-0.307-0.697-0.522-1.189-0.645-1.475c-5.202-11.676-7.803-20.916-7.803-27.717
		c0-8.152,1.086-14.974,3.257-20.465c6.637-16.512,24.562-24.767,53.775-24.767h13.766V70.266c0-1.065,0.389-1.986,1.168-2.765
		s1.7-1.168,2.765-1.168s1.986,0.389,2.765,1.168l31.466,31.466c0.779,0.779,1.168,1.7,1.168,2.765L170.561,101.736z"/>
</g>
</svg>
