<?xml version="1.0" encoding="iso-8859-1"?>
<!-- Generator: Adobe Illustrator 18.1.1, SVG Export Plug-In . SVG Version: 6.00 Build 0)  -->
<svg version="1.1" xmlns="http://www.w3.org/2000/svg" xmlns:xlink="http://www.w3.org/1999/xlink" x="0px" y="0px"
	 viewBox="0 0 231 231" style="enable-background:new 0 0 231 231;" xml:space="preserve">
<g id="twitter">
	<path d="M115.5,231C51.813,231,0,179.187,0,115.5C0,51.813,51.813,0,115.5,0C179.187,0,231,51.813,231,115.5
		C231,179.187,179.187,231,115.5,231z M115.5,9C56.776,9,9,56.776,9,115.5C9,174.225,56.776,222,115.5,222
		c58.725,0,106.5-47.775,106.5-106.5C222,56.776,174.225,9,115.5,9z"/>
	<path d="M172.809,79.953c-4.216,1.87-8.75,3.134-13.507,3.703c4.853-2.912,8.582-7.518,10.34-13.009
		c-4.545,2.693-9.577,4.653-14.932,5.706c-4.291-4.57-10.401-7.425-17.164-7.425c-12.987,0-23.514,10.527-23.514,23.514
		c0,1.845,0.208,3.639,0.609,5.358C95.1,96.82,77.772,87.457,66.175,73.231c-2.024,3.474-3.184,7.511-3.184,11.823
		c0,8.159,4.151,15.355,10.462,19.574c-3.854-0.122-7.479-1.178-10.652-2.941c-0.004,0.097-0.004,0.197-0.004,0.297
		c0,11.393,8.105,20.896,18.861,23.055c-1.974,0.537-4.051,0.824-6.196,0.824c-1.515,0-2.987-0.147-4.423-0.423
		c2.991,9.341,11.676,16.139,21.967,16.329c-8.048,6.307-18.188,10.065-29.205,10.065c-1.898,0-3.768-0.111-5.609-0.33
		c10.405,6.673,22.765,10.566,36.046,10.566c43.253,0,66.903-35.831,66.903-66.906c0-1.021-0.021-2.034-0.068-3.041
		c4.595-3.317,8.582-7.457,11.734-12.171H172.809z"/>
</g>
</svg>
