<?xml version="1.0" encoding="utf-8"?>
<!DOCTYPE svg PUBLIC "-//W3C//DTD SVG 1.1//EN" "http://www.w3.org/Graphics/SVG/1.1/DTD/svg11.dtd">
<svg version="1.1" id="Layer_1" xmlns="http://www.w3.org/2000/svg" xmlns:xlink="http://www.w3.org/1999/xlink" x="0px" y="0px"
	 viewBox="0 0 1114.217 288" style="enable-background:new 0 0 1114.217 288;" xml:space="preserve">
<g>
	<path style="fill:#ffffff;" d="M187.34,196.869c3.545-0.938,7.569-3.161,9.447-5.877c5.025-7.242,6.809-26.607,3.305-37.711
		c-2.852-9.046-7.795-13.46-19.841-13.226c-2.058,0.291-2.865,0.581-4.252,1.472c-4.783,2.956-8.194,9.606-9.926,15.677
		C161.343,173.799,169.152,201.657,187.34,196.869z"/>
	<path style="fill:#ffffff;" d="M215.975,31.862c3.226-5.567,11.406-19.668,15.337-26.429c-11.365-2.88-23.198-4.543-35.384-4.772
		c-86.481-1.67-158.27,67.63-163.27,156.059c-6.622-0.124-23.981-0.448-30.97-0.579c3.27,11.651,7.821,23.113,13.724,34.169
		c41.854,78.486,135.65,108.264,212.029,68.549c3.166,5.911,11.38,21.298,14.865,27.816c8.38-8.972,15.935-19.061,22.414-30.219
		C309.356,179.648,287.345,80.575,215.975,31.862z M259.628,176.789c-9.261,32.161-21.226,48.996-45.357,65.628
		c-7.595,5.225-12.74,7.573-22.026,11.482c-3.551,1.499-9.035,3.468-11.993,3.688c-2.433,0.414-1.486-12.871-1.414-19.093
		c0.441-1.486,0.334-1.313,1.201-2.009c5.502-2.62,10.033-4.084,17.222-8.276c15.19-9.6,28.427-22.588,34.493-41.635
		c2.012-6.325,3.342-12.864,4.25-19.577c1.719-12.7,0.811-26.691-1.892-35.758c-7.742-25.988-21.135-43.148-43.934-53.37
		c-6.481-2.906-19.6-9.37-37.27-7.664c-9.024,0.877-14.83,2.534-22.265,5.696c-21.477,9.158-36.556,25.669-45.359,47.996
		c-2.341,5.96-3.287,11.416-4.25,19.592c-1.003,8.509,0.703,21.753,2.364,27.417c6.443,22.014,15.661,36.139,32.124,47.504
		c5.434,3.757,10.839,6.315,17.478,9.31c1.47,0.655,5.677,2.554,6.619,1.961c1.194-1.055,0.474-19.172,0.474-23.998v-63.044
		c-1.076-0.158-6.736-0.172-9.925-0.131v76.89c-6.408-0.845-23.088-11.637-25.041-16.659v-59.742
		c-0.657-0.166-12.857-0.531-18.424-0.49c-0.126-4.109,0.299-10.677,3.307-17.147h15.117c-0.193-37.533,22.852-48.667,58.587-48.481
		v21.064c-22.383-0.408-33.929,3.922-33.547,27.417h34.493c0.02,1.05-0.033,10.399,0.08,11.29
		c6.368-11.913,22.492-17.741,36.776-11.782c13.785,5.767,20.335,15.939,24.56,31.843c1.071,4.026,1.463,10.684,0.638,18.171
		c-1.526,14.037-6.503,27.305-18.109,34.715c-15.111,9.627-36.91,3.092-42.999-10.282h-0.474v45.055c0,0-0.046,11.22,0.013,14.99
		c-51.61,0.683-85.295-26.82-100.649-63.471c-10.688-25.518-13.146-58.113-1.892-85.702c11.659-28.59,32.985-48.452,60.947-60.24
		c6.616-2.791,13.275-4.55,20.791-5.627c26.281-3.764,51.672,5.021,63.371,12.085c5.076,3.073,7.115,3.881,11.752,7.257
		c18.616,13.564,32.027,33.838,39.689,58.763c1.752,5.717,2.491,11.449,3.305,18.128
		C263.871,152.08,261.853,169.054,259.628,176.789z"/>
</g>
<g>
	<path style="fill:#ffffff;" d="M360.626,209.873c-10.87,0-20.656-1.768-29.362-5.303c-8.706-3.534-16.066-8.519-22.081-14.958
		l19.786-20.419c10.867,10.026,22.264,15.037,34.189,15.037c3.693,0,6.7-0.737,9.023-2.216c2.319-1.475,3.481-3.481,3.481-6.015
		c0-1.053-0.237-2.029-0.712-2.928c-0.475-0.895-1.399-1.793-2.769-2.69c-1.373-0.895-3.246-1.899-5.62-3.007
		c-2.374-1.108-5.515-2.399-9.418-3.879c-4.431-1.686-8.415-3.455-11.951-5.303c-3.536-1.843-6.544-3.956-9.022-6.33
		c-2.481-2.374-4.406-5.09-5.778-8.152c-1.371-3.059-2.057-6.648-2.057-10.763c0-5.486,1.187-10.551,3.561-15.196
		c2.374-4.642,5.644-8.627,9.813-11.951c4.168-3.324,9.127-5.908,14.879-7.756c5.75-1.845,12.003-2.77,18.758-2.77
		c9.813,0,18.492,1.479,26.039,4.432c7.543,2.955,14.008,6.964,19.389,12.03l-18.995,21.21c-4.221-3.692-8.733-6.648-13.533-8.864
		c-4.804-2.216-10.051-3.325-15.75-3.325c-3.694,0-6.623,0.767-8.785,2.295c-2.164,1.531-3.244,3.403-3.244,5.619
		c0,1.162,0.262,2.137,0.791,2.928c0.528,0.791,1.449,1.61,2.77,2.453c1.317,0.846,3.19,1.795,5.619,2.849
		c2.427,1.056,5.541,2.322,9.339,3.798c4.22,1.583,8.097,3.324,11.635,5.224c3.534,1.899,6.569,4.036,9.101,6.411
		c2.532,2.374,4.51,5.143,5.936,8.309c1.424,3.165,2.136,6.806,2.136,10.921c0,5.698-1.162,10.896-3.483,15.591
		c-2.322,4.697-5.566,8.733-9.734,12.108c-4.17,3.379-9.155,5.991-14.958,7.836C373.817,208.948,367.485,209.873,360.626,209.873z"
		/>
	<path style="fill:#ffffff;" d="M449.582,124.083h-33.24l7.282-26.909h97.029l-7.123,26.909H480.29l-22.477,83.891h-30.866
		L449.582,124.083z"/>
	<path style="fill:#ffffff;" d="M547.401,210.031c-14.353,0-25.406-3.402-33.161-10.209c-7.756-6.806-11.633-16.328-11.633-28.571
		c0-2.743,0.209-5.619,0.633-8.626c0.42-3.007,1.053-6.039,1.899-9.1l15.195-56.351h31.024l-15.67,58.566
		c-0.529,1.796-0.925,3.537-1.187,5.223c-0.265,1.69-0.395,3.431-0.395,5.224c0,5.065,1.475,9.022,4.431,11.872
		c2.953,2.849,7.227,4.274,12.821,4.274c6.016,0,10.974-1.952,14.879-5.857c2.11-2.003,3.904-4.456,5.382-7.36
		c1.477-2.901,2.795-6.569,3.958-11.002l16.462-60.939h31.024l-17.57,65.53c-3.905,14.459-9.655,25.484-17.253,33.083
		c-4.961,4.961-10.87,8.575-17.727,10.842C563.65,208.896,555.948,210.031,547.401,210.031z"/>
	<path style="fill:#ffffff;" d="M629.551,97.174h35.773c10.763,0,19.628,1.321,26.591,3.958c6.965,2.639,12.557,6.069,16.779,10.288
		c8.018,8.021,12.03,18.836,12.03,32.449c0,8.337-1.532,16.199-4.591,23.584c-3.061,7.387-7.598,14.088-13.613,20.103
		c-6.648,6.648-14.775,11.712-24.376,15.195c-9.603,3.483-20.841,5.224-33.714,5.224h-44.637L629.551,97.174z M648.07,180.748
		c6.435,0,12.398-0.949,17.886-2.848c5.486-1.9,10.075-4.695,13.771-8.39c2.953-2.952,5.275-6.435,6.965-10.446
		c1.686-4.008,2.532-8.23,2.532-12.663c0-3.376-0.475-6.304-1.425-8.785c-0.949-2.478-2.322-4.615-4.114-6.411
		c-2.112-2.109-4.908-3.771-8.39-4.986c-3.481-1.212-7.914-1.82-13.296-1.82h-8.864l-15.195,56.349H648.07z"/>
	<path style="fill:#ffffff;" d="M738.134,97.174h88.799l-7.123,26.118h-58.25l-4.591,16.778h52.868l-6.49,24.218h-52.868
		l-4.749,17.569h59.2l-6.965,26.118h-89.59L738.134,97.174z"/>
	<path style="fill:#ffffff;" d="M832.154,97.174h28.65l28.65,61.572l16.62-61.572h30.549l-29.758,110.8h-26.909l-29.916-63.789
		l-17.095,63.789h-30.549L832.154,97.174z"/>
	<path style="fill:#ffffff;" d="M962.581,124.083h-33.24l7.282-26.909h97.029l-7.123,26.909h-33.239l-22.477,83.891h-30.866
		L962.581,124.083z"/>
	<path style="fill:#ffffff;" d="M1054.068,209.873c-10.87,0-20.656-1.768-29.362-5.303c-8.706-3.534-16.066-8.519-22.081-14.958
		l19.786-20.419c10.867,10.026,22.264,15.037,34.189,15.037c3.693,0,6.701-0.737,9.023-2.216c2.319-1.475,3.481-3.481,3.481-6.015
		c0-1.053-0.237-2.029-0.712-2.928c-0.475-0.895-1.399-1.793-2.769-2.69c-1.373-0.895-3.246-1.899-5.62-3.007
		s-5.515-2.399-9.418-3.879c-4.431-1.686-8.415-3.455-11.951-5.303c-3.536-1.843-6.544-3.956-9.022-6.33
		c-2.481-2.374-4.406-5.09-5.778-8.152c-1.371-3.059-2.057-6.648-2.057-10.763c0-5.486,1.187-10.551,3.561-15.196
		c2.374-4.642,5.644-8.627,9.813-11.951c4.168-3.324,9.127-5.908,14.879-7.756c5.75-1.845,12.003-2.77,18.758-2.77
		c9.813,0,18.492,1.479,26.038,4.432c7.543,2.955,14.008,6.964,19.389,12.03l-18.995,21.21c-4.221-3.692-8.733-6.648-13.533-8.864
		c-4.804-2.216-10.051-3.325-15.75-3.325c-3.694,0-6.623,0.767-8.785,2.295c-2.164,1.531-3.244,3.403-3.244,5.619
		c0,1.162,0.262,2.137,0.791,2.928c0.528,0.791,1.449,1.61,2.771,2.453c1.317,0.846,3.19,1.795,5.619,2.849
		c2.427,1.056,5.541,2.322,9.339,3.798c4.22,1.583,8.097,3.324,11.635,5.224c3.534,1.899,6.569,4.036,9.101,6.411
		c2.532,2.374,4.51,5.143,5.936,8.309c1.424,3.165,2.136,6.806,2.136,10.921c0,5.698-1.162,10.896-3.483,15.591
		c-2.322,4.697-5.566,8.733-9.734,12.108c-4.17,3.379-9.155,5.991-14.958,7.836C1067.259,208.948,1060.927,209.873,1054.068,209.873
		z"/>
</g>
<g>
</g>
<g>
</g>
<g>
</g>
<g>
</g>
<g>
</g>
<g>
</g>
</svg>
